<svg xmlns="http://www.w3.org/2000/svg" xml:space="preserve" width="2048" height="2048" style="shape-rendering:geometricPrecision;text-rendering:geometricPrecision;image-rendering:optimizeQuality;fill-rule:evenodd;clip-rule:evenodd"><defs><clipPath id="id0"><path d="M1024-.001c565.541 0 1024 458.46 1024 1024s-458.461 1024-1024 1024c-565.541 0-1024-458.461-1024-1024 0-565.541 458.461-1024 1024-1024z"/></clipPath><style>.fil1{fill:#ffb300}.fil3{fill:#ffa726;fill-rule:nonzero}</style></defs><g id="Layer_x0020_1"><path d="M1024-.001c565.541 0 1024 458.46 1024 1024s-458.461 1024-1024 1024c-565.541 0-1024-458.461-1024-1024 0-565.541 458.461-1024 1024-1024z" style="fill:#ffca28"/><g style="clip-path:url(#id0)"><g id="_464375616"><path id="_4668027041" class="fil1" d="M1107.94 640.687 2243.82 1776.57l1.04 1.14.89 1.22.76 1.28.62 1.34.48 1.38.35 1.41.21 1.43.06 1.45-.06 1.44-.21 1.43-.35 1.42-.48 1.38-.62 1.33-.76 1.28-.89 1.22-1.04 1.15L1107.94 661.985l1.04-1.144.89-1.218.76-1.283.62-1.337.48-1.38.35-1.411.21-1.433.06-1.443-.06-1.443-.21-1.433-.35-1.411-.48-1.38-.62-1.337-.76-1.283-.89-1.219z"/><path id="_466802728" class="fil1" d="M851.864 534.615 1987.74 1670.5l.98 1.07.86 1.16.76 1.24.63 1.31.51 1.39.37 1.44.23 1.5.08 1.54L856.275 545.265l-.078-1.541-.228-1.495-.371-1.443-.506-1.384-.635-1.316-.754-1.243-.867-1.16z"/><path id="_466803616" class="fil1" d="M856.275 545.265 1992.16 1681.15v150.61L856.275 695.873z"/><path id="_466803688" class="fil1" d="M1107.94 661.985 2243.82 1797.87l-106.49 106.49L1001.45 768.481z"/><path id="_466803760" class="fil1" d="M856.275 695.873 1992.16 1831.76l-.08 1.54-.23 1.49-.37 1.44-.51 1.39-.63 1.31-.76 1.25-.86 1.16-.98 1.07-1.06.97-1.16.86-1.25.76-1.31.63-1.39.51-1.44.37-1.5.23-1.54.08L841.214 710.934l1.54-.078 1.495-.228 1.443-.37 1.385-.507 1.315-.634 1.243-.755 1.16-.867 1.069-.972.972-1.069.867-1.16.754-1.242.635-1.316.506-1.384.371-1.444.228-1.495z"/><path id="_466803832" class="fil1" d="M595.782 640.687 1731.66 1776.57l106.5 106.5L702.278 747.184z"/><path id="_466803904" class="fil1" d="M629.67 922.478 1765.55 2058.36h-150.61L479.061 922.478z"/><path id="_466803976" class="fil1" d="M821.603 1517.36 1957.48 2653.25H1951.42l-1.72.01h-1.6l-1.47.01-1.36.01-1.27.01-1.18.01-1.11.01-1.04.02-.99.01-.96.01-.93.02-.91.01-.91.01L800.092 1517.51l.907-.01.911-.02.928-.01.956-.01.994-.02 1.046-.01 1.108-.01 1.181-.01 1.266-.01 1.363-.01 1.471-.01h1.591l1.721-.01h1.865l2.019-.01z"/><path id="_466804048" class="fil1" d="M800.092 1517.51 1935.97 2653.39l-3.29.06-3.33.05-3.37.04-3.4.05-3.44.03-3.46.03-3.49.02-3.51.01-3.52-.01-3.54-.02-3.55-.04-3.55-.06-3.55-.08-3.56-.1-3.54-.12-3.54-.15-3.53-.18-3.5-.21-3.49-.24-3.46-.27-3.44-.31-3.4-.35-3.37-.38-3.33-.42-3.29-.47-3.24-.51-3.2-.55-3.13-.61-3.09-.65-3.02-.7-2.96-.76-2.88-.81L692.115 1509.8l2.889.81 2.956.75 3.021.71 3.083.65 3.139.6 3.193.56 3.242.51 3.288.46 3.331.43 3.368.38 3.405.35 3.436.3 3.463.28 3.488.24 3.507.21 3.524.18 3.538.15 3.545.12 3.553.1 3.554.08 3.552.06 3.546.04 3.538.02 3.524.01 3.508-.01 3.488-.02 3.464-.03 3.437-.03 3.405-.05 3.371-.05 3.332-.05z"/><path id="_466804120" class="fil1" d="M692.115 1509.8 1828 2645.68l-3.71-1.13-3.67-1.21-3.63-1.27-3.6-1.36-3.56-1.42-3.52-1.49-3.48-1.57-3.45-1.63-3.4-1.7-3.36-1.77-3.33-1.84-3.27-1.9-3.24-1.97-3.19-2.03-3.14-2.09-3.1-2.16-3.06-2.22-3-2.28-2.96-2.34-2.91-2.4L625.539 1474.02l2.91 2.4 2.958 2.34 3.006 2.28 3.053 2.22 3.099 2.15 3.146 2.1 3.19 2.03 3.235 1.97 3.277 1.9 3.322 1.84 3.361 1.77 3.404 1.7 3.444 1.63 3.483 1.56 3.522 1.5 3.56 1.42 3.598 1.35 3.634 1.28 3.67 1.21z"/><path id="_466804192" class="fil1" d="M687.648 1041.2 1823.53 2177.08l1.03 1.14.9 1.22.76 1.29.62 1.33.48 1.38.34 1.41.21 1.44.07 1.44-.07 1.44-.21 1.44-.34 1.41-.48 1.38-.62 1.33-.76 1.29-.9 1.21-1.03 1.15L687.648 1062.5l1.033-1.15.897-1.22.758-1.28.62-1.34.482-1.38.345-1.41.207-1.43.068-1.44-.068-1.45-.207-1.43-.345-1.41-.482-1.38-.62-1.34-.758-1.28-.897-1.22z"/><path id="_466804264" class="fil1" d="M841.214 710.934 1977.09 1846.82l-1.54-.08-1.49-.23-1.44-.37-1.39-.51-1.31-.63-1.25-.76-1.16-.86-1.07-.97L830.564 706.523l1.07.972 1.16.867 1.241.755 1.317.634 1.383.507 1.443.37 1.495.228z"/><path id="_466804336" class="fil1" d="M968.779 779.442 2104.66 1915.32l6.06 6.36 5.75 6.64 5.43 6.91 5.1 7.17 4.76 7.42 4.4 7.66 4.04 7.89 3.66 8.1 3.28 8.31 2.87 8.5 2.47 8.68 2.04 8.85 1.61 9.01 1.16 9.15.71 9.29.24 9.41-.02 2.62-.05 2.61-.1 2.6-.12 2.59-.17 2.58-.19 2.57-.24 2.56-.27 2.55-.3 2.54-.34 2.53-.37 2.51-.41 2.51-.44 2.5-.47 2.48-.51 2.47-.54 2.46-.57 2.44-.61 2.44-.64 2.42-.67 2.41-.7 2.39-.73 2.38-.77 2.37-.8 2.35-.82 2.34-.86 2.32-.89 2.31-.92 2.29-.95 2.28-.97 2.26-1.01 2.25-1.04 2.23L1004.87 986.944l1.04-2.23 1-2.246.98-2.262.95-2.277.92-2.294.89-2.308.86-2.323.82-2.338.8-2.351.76-2.367.74-2.38.7-2.394.67-2.408.64-2.42.61-2.435.57-2.446.54-2.459.51-2.471.47-2.482.44-2.496.41-2.506.37-2.517.34-2.529.3-2.539.27-2.55.23-2.561.2-2.57.17-2.58.12-2.59.09-2.598.06-2.608.02-2.617-.24-9.414-.71-9.289-1.16-9.155-1.61-9.008-2.04-8.851-2.47-8.68-2.87-8.499-3.28-8.308-3.66-8.103-4.04-7.887-4.406-7.661-4.758-7.422-5.1-7.171-5.431-6.911-5.75-6.638z"/><path id="_466804408" class="fil1" d="M1001.45 768.481 2137.33 1904.36l-1.15 1.04-1.21.89-1.29.76-1.33.62-1.38.48-1.41.35-1.44.21-1.44.06-1.44-.06-1.44-.21-1.41-.35-1.38-.48-1.33-.62-1.29-.76-1.22-.89-1.14-1.04L980.149 768.481l1.143 1.034 1.219.896 1.283.758 1.337.621 1.38.481 1.411.345 1.433.207 1.443.069 1.443-.069 1.433-.207 1.411-.345 1.38-.481 1.337-.621 1.283-.758 1.215-.896z"/><path id="_466804480" class="fil1" d="M1428.65 961.315 2564.53 2097.2l3.45 3.83 3.39 3.9 3.31 3.96 3.23 4.03 3.16 4.08 3.09 4.15 3 4.21 2.93 4.27 2.85 4.32 2.76 4.38 2.69 4.44 2.6 4.49 2.52 4.54 2.43 4.59 2.34 4.64 2.26 4.68 2.17 4.74 2.08 4.77 1.98 4.83 1.9 4.86 1.8 4.91 1.7 4.95 1.62 4.98 1.51 5.03-1135.88-1135.89-1.52-5.02-1.61-4.98-1.7-4.95-1.8-4.91-1.9-4.86-1.98-4.83-2.08-4.78-2.17-4.73-2.26-4.69-2.34-4.64-2.43-4.59-2.52-4.54-2.6-4.48-2.69-4.44-2.76-4.379-2.85-4.324-2.93-4.267-3.01-4.21-3.08-4.149-3.16-4.088-3.23-4.026-3.31-3.963-3.39-3.897z"/><path id="_466804552" class="fil1" d="m1521.88 1098.54 1135.88 1135.88 2.25 2.5 2.2 2.53 2.17 2.55 2.12 2.59 2.09 2.61 2.06 2.65 2.01 2.67 1.97 2.71 1.94 2.73 1.9 2.76 1.85 2.78 1.82 2.82 1.78 2.84 1.74 2.87 1.7 2.9 1.65 2.92 1.62 2.96 1.58 2.98 1.53 3-1135.88-1135.88-1.53-3.01-1.58-2.98-1.62-2.95-1.66-2.92-1.69-2.9-1.74-2.87-1.78-2.84-1.82-2.82-1.86-2.79-1.89-2.76-1.94-2.73-1.97-2.7-2.02-2.67-2.05-2.65-2.09-2.61-2.12-2.59-2.17-2.56-2.2-2.52z"/><path id="_466804624" class="fil1" d="M1104.02 922.478 2239.91 2058.36h-51.27L1052.76 922.478z"/><path id="_466804696" class="fil1" d="M479.061 922.478 1614.94 2058.36l-1.54-.08-1.49-.23-1.45-.37-1.38-.5-1.32-.64-1.24-.75-1.16-.87-1.07-.97L468.411 918.067l1.069.972 1.16.867 1.243.755 1.315.634 1.385.506 1.443.371 1.495.228z"/><path id="_466804768" class="fil1" d="M581.151 1168.99 1717.03 2304.87l-1.14 1.04-1.22.89-1.28.76-1.34.62-1.38.48-1.41.35-1.43.21-1.45.06-1.44-.06-1.43-.21-1.41-.35-1.38-.48-1.34-.62-1.28-.76-1.22-.89L560.997 1170.03l1.219.89 1.282.76 1.337.62 1.38.48 1.411.35 1.433.2 1.443.07 1.444-.07 1.432-.2 1.412-.35 1.379-.48 1.337-.62 1.283-.76 1.219-.89z"/><path id="_466804840" class="fil1" d="M640.32 896.767 1776.2 2032.65l.97 1.07.87 1.16.75 1.24.64 1.32.51 1.38.37 1.44.22 1.5.08 1.54L644.731 907.417l-.078-1.54-.228-1.496-.371-1.443-.506-1.384-.635-1.316-.754-1.242-.867-1.16z"/><path id="_466804912" class="fil1" d="M702.278 747.184 1838.16 1883.07l1.03 1.14.9 1.22.76 1.28.62 1.34.48 1.38.34 1.41.21 1.43.07 1.44-.07 1.45-.21 1.43-.34 1.41-.48 1.38-.62 1.34-.76 1.28-.9 1.22-1.03 1.14L702.278 768.481l1.034-1.143.896-1.219.758-1.283.62-1.337.482-1.379.345-1.412.207-1.432.068-1.444-.068-1.443-.207-1.433-.345-1.411-.482-1.379-.62-1.337-.758-1.283-.896-1.219z"/><path id="_466804984" class="fil1" d="M702.278 768.481 1838.16 1904.36l-1.14 1.04-1.22.89-1.29.76-1.33.62-1.38.48-1.41.35-1.44.21-1.44.06-1.44-.06-1.44-.21-1.41-.35-1.38-.48-1.33-.62-1.29-.76-1.22-.89-1.14-1.04L680.98 768.481l1.144 1.034 1.219.896 1.282.758 1.337.621 1.38.481 1.411.345 1.433.207 1.443.069 1.444-.069 1.432-.207 1.412-.345 1.379-.481 1.337-.621 1.283-.758 1.219-.896z"/><path id="_466805056" class="fil1" d="m1513.75 1444.24 1135.88 1135.88-4.09 4.18-4.17 4.08-4.28 3.97-4.36 3.87-4.46 3.76-4.55 3.64-4.63 3.54-4.72 3.42-4.8 3.31-4.89 3.18-4.96 3.07-5.05 2.95-5.12 2.82-5.21 2.69-5.27 2.57-5.35 2.43-5.42 2.31-5.49 2.17-5.55 2.03-5.62 1.9-5.69 1.75-5.75 1.61-5.82 1.47-5.87 1.32-5.93 1.18-5.99 1.02-6.04.88-6.1.71-6.14.57-6.2.4-6.25.24-6.29.09-1135.88-1135.89 6.29-.08 6.25-.24 6.2-.41 6.14-.56 6.1-.72 6.04-.87 5.99-1.02 5.93-1.18 5.87-1.32 5.82-1.47 5.75-1.61 5.68-1.76 5.63-1.89 5.55-2.04 5.49-2.17 5.42-2.3 5.35-2.44 5.27-2.56 5.2-2.7 5.13-2.82 5.04-2.94 4.97-3.07 4.89-3.19 4.8-3.3 4.72-3.42 4.63-3.54 4.55-3.65 4.46-3.76 4.36-3.86 4.27-3.98 4.18-4.07z"/><path id="_466805128" class="fil1" d="m1557.86 1150.91 1135.88 1135.88 1.58 3.19 1.52 3.22 1.48 3.24 1.43 3.28 1.39 3.29 1.33 3.33 1.29 3.35 1.25 3.38 1.19 3.4 1.14 3.43 1.1 3.45 1.05 3.48 1 3.5.95 3.53.9 3.55.85 3.58.8 3.6.75 3.62.71 3.65.65 3.67.6 3.69.55 3.71.49 3.74.45 3.76.39 3.78.35 3.81.29 3.82.24 3.85.18 3.86.13 3.89.08 3.91.03 3.93L1584 1265.39l-.03-3.93-.08-3.9-.13-3.89-.19-3.87-.23-3.84-.29-3.83-.35-3.8-.39-3.78-.45-3.76-.5-3.74-.54-3.71-.6-3.69-.66-3.67-.7-3.65-.75-3.62-.8-3.6-.85-3.58-.9-3.55-.95-3.53-1-3.5-1.05-3.48-1.1-3.45-1.14-3.43-1.2-3.41-1.24-3.37-1.29-3.35-1.34-3.33-1.38-3.3-1.43-3.27-1.48-3.24-1.53-3.22z"/><path id="_466805200" class="fil1" d="m1584 1265.39 1135.88 1135.89v1.46l-.01 1.46-.02 1.45-.03 1.46-.04 1.45-.04 1.45-.05 1.45-.06 1.45-.06 1.45-.08 1.44-.08 1.44-.09 1.44-.09 1.44-.1 1.44-.12 1.43-.11 1.43-.13 1.43-.13 1.43-.15 1.42-.14 1.42-.16 1.42-.16 1.42-.17 1.42-.18 1.41-.19 1.41-.19 1.41-.2 1.41-.21 1.4-.21 1.4-.23 1.4-.22 1.39-.24 1.4-1135.88-1135.88.23-1.4.23-1.39.23-1.4.21-1.4.21-1.41.2-1.4.19-1.41.19-1.41.17-1.42.17-1.41.17-1.42.15-1.42.15-1.42.14-1.43.14-1.42.12-1.43.12-1.43.11-1.44.11-1.43.09-1.44.09-1.44.08-1.44.08-1.44.06-1.45.06-1.45.05-1.45.04-1.45.04-1.45.02-1.46.02-1.46.02-1.46z"/><path id="_466805272" class="fil1" d="M1052.76 922.478 2188.64 2058.36l-1.54-.08-1.5-.23-1.44-.37-1.38-.5-1.32-.64-1.24-.75-1.16-.87-1.07-.97L1042.11 918.067l1.07.972 1.16.867 1.24.755 1.31.634 1.39.506 1.44.371 1.5.228z"/><path id="_466805344" class="fil1" d="m1580.11 1311.13 1135.88 1135.88-.87 4.8-.96 4.77-1.05 4.74-1.12 4.7-1.21 4.67-1.3 4.64-1.37 4.59-1.45 4.56-1.54 4.53-1.61 4.48-1.69 4.44-1.77 4.4-1.85 4.36-1.92 4.31-1.99 4.27-2.07 4.23-2.15 4.18-2.22 4.13-2.29 4.08-2.36 4.03-2.43 3.98-2.5 3.94-2.56 3.88-2.64 3.82-2.7 3.77-2.77 3.72-2.84 3.66-2.9 3.61-2.96 3.54-3.03 3.49-3.09 3.43-3.15 3.36-1135.88-1135.88 3.15-3.37 3.09-3.42 3.03-3.49 2.96-3.55 2.9-3.6 2.84-3.66 2.77-3.72 2.7-3.77 2.64-3.83 2.56-3.88 2.5-3.93 2.43-3.98 2.36-4.03 2.29-4.09 2.22-4.13 2.14-4.17 2.07-4.23 2-4.27 1.92-4.31 1.85-4.36 1.77-4.4 1.69-4.44 1.61-4.48 1.54-4.53 1.45-4.56 1.37-4.59 1.29-4.64 1.22-4.67 1.12-4.7 1.05-4.74.96-4.77z"/><path id="_466805416" class="fil1" d="M644.731 907.417 1780.61 2043.3l-.08 1.54-.22 1.49-.37 1.45-.51 1.38-.64 1.32-.75 1.24-.87 1.16-.97 1.07-1.07.97-1.16.87-1.24.75-1.32.64-1.38.5-1.44.37-1.5.23-1.54.08L629.67 922.478l1.54-.078 1.495-.228 1.444-.371 1.384-.506 1.316-.634 1.242-.755 1.16-.867 1.069-.972.972-1.069.867-1.16.754-1.242.635-1.316.506-1.384.371-1.444.228-1.495z"/><path id="_466805488" class="fil1" d="M779.646 1081.73 1915.53 2217.61l-6.66-2.45-6.54-2.7-6.4-2.93-6.27-3.18-6.13-3.41-5.98-3.63-5.83-3.85-5.67-4.06-5.51-4.27-5.33-4.48-5.16-4.67L714.166 1042.1l5.16 4.67 5.336 4.48 5.507 4.27 5.67 4.06 5.829 3.85 5.981 3.63 6.129 3.41 6.269 3.17 6.405 2.94 6.535 2.7z"/><path id="_466805560" class="fil1" d="M687.648 1062.5 1823.53 2198.38l-106.5 106.49L581.151 1168.99z"/><path id="_466805632" class="fil1" d="m1343.69 1517.36 1135.88 1135.89h-522.09L821.603 1517.36z"/><path id="_464376912" class="fil1" d="M1052.76 892.355h106.929c25.569-9.733 53.208-15.118 82.406-15.118 58.614 0 112.937 21.142 156.465 55.967 42.88 34.304 75.236 81.914 90.86 135.69 29.111 22.114 52.28 49.818 68.444 82.014 17.013 33.885 26.138 72.48 26.138 114.484 0 15.595-1.332 30.882-3.892 45.732-8.858 51.392-32.42 97.543-66.36 133.114-43.048 45.117-102.683 73.125-170.062 73.125H821.605c-12.11 0-16.666.073-21.51.149-34.85.551-77.54 1.228-107.978-7.714-39.698-11.662-73.565-36.163-97.401-68.857-23.5-32.234-37.253-72.355-37.253-115.931 0-4.663.176-9.293.52-13.887a187.882 187.882 0 0 1 2.057-16.998c8.125-48.515 34.905-90.552 71.22-120.362 35.998-29.552 81.505-47.185 127.472-47.185 2.517 0 5.058.055 7.62.172 2.997-15.62 7.46-30.739 13.296-45.024-71.67-24.773-123.144-92.843-123.144-172.935 0-101.028 81.9-182.928 182.927-182.928 101.028 0 182.928 81.9 182.928 182.928 0 27.959-6.272 54.453-17.487 78.152a178.307 178.307 0 0 1 25.479 15.758c19.234-31.409 44.204-58.984 73.676-80.224h-51.267c-8.319 0-15.062-6.743-15.062-15.061 0-8.319 6.743-15.062 15.062-15.062zm33.888-251.668c5.88-5.88 15.417-5.88 21.298 0 5.88 5.88 5.88 15.417 0 21.298l-106.497 106.497c-5.88 5.88-15.417 5.88-21.298 0-5.88-5.881-5.88-15.417 0-21.298l106.497-106.497zM687.65 1041.198c5.88 5.88 5.88 15.417 0 21.298l-106.497 106.497c-5.88 5.88-15.417 5.88-21.297 0-5.881-5.881-5.881-15.417 0-21.298l106.497-106.497c5.88-5.88 15.416-5.88 21.297 0zm-91.866-400.511 106.497 106.497c5.88 5.88 5.88 15.417 0 21.298-5.88 5.88-15.417 5.88-21.298 0L574.486 661.985c-5.88-5.881-5.88-15.417 0-21.298 5.881-5.88 15.417-5.88 21.298 0zm245.432-110.484c8.319 0 15.061 6.743 15.061 15.061v150.608c0 8.319-6.743 15.062-15.061 15.062-8.317 0-15.061-6.743-15.061-15.062V545.264c0-8.318 6.744-15.061 15.061-15.061zM479.064 892.355h150.608c8.319 0 15.061 6.743 15.061 15.061 0 8.319-6.743 15.062-15.061 15.062H479.064c-8.319 0-15.061-6.743-15.061-15.062 0-8.318 6.743-15.061 15.061-15.061z"/></g></g><path d="M1024-.001c565.541 0 1024 458.46 1024 1024s-458.461 1024-1024 1024c-565.541 0-1024-458.461-1024-1024 0-565.541 458.461-1024 1024-1024z" style="fill:none"/><path class="fil3" d="M1052.76 922.478c-8.319 0-15.061-6.743-15.061-15.061s6.743-15.062 15.061-15.062h150.61c8.317 0 15.061 6.744 15.061 15.062s-6.744 15.061-15.061 15.061h-150.61z"/><circle cx="839.429" cy="908.791" style="fill:#ef6c00" r="182.928"/><path d="M1242.09 877.237c58.615 0 112.937 21.142 156.465 55.967 42.881 34.305 75.236 81.914 90.86 135.69 29.112 22.114 52.28 49.818 68.445 82.013 17.012 33.886 26.138 72.48 26.138 114.486 0 69.573-26.507 132.997-70.252 178.846-43.048 45.117-102.683 73.124-170.062 73.124H821.6c-12.11 0-16.667.074-21.51.15-34.852.55-77.541 1.228-107.979-7.715-39.698-11.662-73.565-36.161-97.4-68.857-23.501-32.233-37.254-72.354-37.254-115.93 0-10.477.887-20.792 2.577-30.885 8.125-48.515 34.905-90.552 71.22-120.362 35.998-29.553 81.505-47.187 127.473-47.187 2.517 0 5.057.057 7.619.174 5.683-29.62 16.635-57.436 32.24-81.191 19.008-28.937 44.86-51.89 76.498-64.945 30.283-12.485 62.05-14.343 92.112-7.404 22.438 5.178 43.937 15.268 63.15 29.491 20.86-34.066 48.47-63.622 81.252-85.477 37.603-25.068 81.886-39.988 130.49-39.988z" style="fill:#26a69a;fill-rule:nonzero"/><path d="M1580.1 1311.12c-8.86 51.392-32.418 97.544-66.357 133.115-43.047 45.117-102.683 73.124-170.062 73.124H821.598c-12.11 0-16.666.074-21.51.15-34.85.55-77.54 1.228-107.978-7.714-39.698-11.663-73.565-36.162-97.4-68.858-23.501-32.233-37.254-72.354-37.254-115.93 0-4.662.175-9.293.52-13.887h1022.12z" style="fill:#229d91;fill-rule:nonzero"/><path class="fil3" d="M826.152 545.265c0-8.319 6.744-15.063 15.061-15.063 8.319 0 15.062 6.745 15.062 15.063v150.608c0 8.319-6.743 15.061-15.062 15.061-8.317 0-15.061-6.743-15.061-15.061V545.265zM574.484 661.985c-5.88-5.88-5.88-15.417 0-21.298 5.88-5.88 15.417-5.88 21.298 0l106.497 106.497c5.882 5.881 5.882 15.417 0 21.298-5.881 5.88-15.417 5.88-21.298 0L574.484 661.985zM1086.65 640.687c5.88-5.88 15.417-5.88 21.298 0 5.88 5.88 5.88 15.417 0 21.298L1001.45 768.482c-5.881 5.88-15.417 5.88-21.298 0-5.88-5.881-5.88-15.417 0-21.298l106.497-106.497zM666.35 1041.2c5.88-5.88 15.417-5.88 21.298 0 5.88 5.88 5.88 15.417 0 21.298L581.15 1168.995c-5.881 5.88-15.417 5.88-21.298 0-5.88-5.881-5.88-15.417 0-21.298L666.35 1041.2zM479.061 922.478c-8.319 0-15.061-6.743-15.061-15.061s6.743-15.062 15.061-15.062h150.608c8.319 0 15.061 6.744 15.061 15.062s-6.743 15.061-15.061 15.061H479.061z"/></g></svg>